# xmcd CD database file
#
# Track frame offsets:
#	150
#	15000
#	33600
#	48600
#	60507
#	75994
#	89037
#	106639
#	115762
#	130612
#	142996
#
# Disc length: 2174 seconds
#
# Revision: 0
# Processed by: cddbd v1.5.2PL0 Copyright (c) Steve Scherf et al.
# Submitted via: CDex 1.70beta2
#
DISCID=7c087c0b
DTITLE=Fernant Zeste - Polaroids
DYEAR=2013
DGENRE=Blues
TTITLE0=All is fine now
TTITLE1=Louise III
TTITLE2=Polaroids
TTITLE3=Snowblind
TTITLE4=Little devil
TTITLE5=Come back home (side A)
TTITLE6=Come back home (side B)
TTITLE7=Misery under arctic willows
TTITLE8=The boat
TTITLE9=Welle (revisited)
TTITLE10=Your mind was tremblin'
EXTD=YEAR: 2013
EXTT0=
EXTT1=
EXTT2=
EXTT3=
EXTT4=
EXTT5=
EXTT6=
EXTT7=
EXTT8=
EXTT9=
EXTT10=
PLAYORDER=
